<svg xmlns="http://www.w3.org/2000/svg" viewBox="0 0 300 300"><style>.st0{fill:#6FC27D;} .st1{display:none;} .st2{fill:#F7F9F8;} .st3{display:inline;fill:#517376;}</style><g id="Layer_1"><g id="Layer_2"><path class="st0" d="M164.6 138.9h-10.9c-.6 0-1.2.5-1.2 1.2s.5 1.2 1.2 1.2h10.9c.6 0 1.2-.5 1.2-1.2s-.5-1.2-1.2-1.2zM164.6 135.9h-10.9c-.6 0-1.2.5-1.2 1.2s.5 1.2 1.2 1.2h10.9c.6 0 1.2-.5 1.2-1.2s-.5-1.2-1.2-1.2zM164.6 132.9h-10.9c-.6 0-1.2.5-1.2 1.2s.5 1.2 1.2 1.2h10.9c.6 0 1.2-.5 1.2-1.2s-.5-1.2-1.2-1.2zM164.6 129.9h-10.9c-.6 0-1.2.5-1.2 1.2s.5 1.2 1.2 1.2h10.9c.6 0 1.2-.5 1.2-1.2s-.5-1.2-1.2-1.2zM166.5 131.1c0 .6.5 1.2 1.2 1.2h.6l-1.8-1.2c.1 0 0 0 0 0z"/><path class="st0" d="M178.6 129.9h-10.9c-.6 0-1.1.5-1.2 1.1l1.8 1.3h10.3c.6 0 1.2-.5 1.2-1.2s-.5-1.2-1.2-1.2zM178.6 126.9h-10.9c-.6 0-1.2.5-1.2 1.2s.5 1.2 1.2 1.2h10.9c.6 0 1.2-.5 1.2-1.2s-.5-1.2-1.2-1.2zM178.6 123.9h-10.9c-.6 0-1.2.5-1.2 1.2s.5 1.2 1.2 1.2h10.9c.6 0 1.2-.5 1.2-1.2s-.5-1.2-1.2-1.2zM167.7 123.3h10.9c.6 0 1.2-.5 1.2-1.2s-.5-1.2-1.2-1.2h-10.9c-.6 0-1.2.5-1.2 1.2s.6 1.2 1.2 1.2zM154.8 123.3h-1.2c-.6 0-1-.5-1-1v-.3c0-.6.5-1 1-1h1.2c.6 0 1 .5 1 1v.3c0 .5-.5 1-1 1zM158.8 126.3h-5.1c-.6 0-1.2-.5-1.2-1.2 0-.6.5-1.2 1.2-1.2h5.1c.6 0 1.2.5 1.2 1.2s-.5 1.2-1.2 1.2zM163 129.3h-9.3c-.6 0-1.2-.5-1.2-1.2 0-.6.5-1.2 1.2-1.2h9.3c.6 0 1.2.5 1.2 1.2s-.6 1.2-1.2 1.2zM178.6 135.3h-9.1c-.6 0-1.2-.5-1.2-1.2 0-.6.5-1.2 1.2-1.2h9.1c.6 0 1.2.5 1.2 1.2s-.5 1.2-1.2 1.2zM178.6 138.3h-5c-.6 0-1.2-.5-1.2-1.2 0-.6.5-1.2 1.2-1.2h5c.6 0 1.2.5 1.2 1.2s-.5 1.2-1.2 1.2zM178.8 141.3h-1.2c-.6 0-1-.5-1-1v-.3c0-.6.5-1 1-1h1.2c.6 0 1 .5 1 1v.3c0 .5-.5 1-1 1z"/></g><path class="st1 st2" d="M188.9 117.1l-1.7 3.1c-.2.3-.7.3-.9 0l-1.8-3.1c-.1-.2-.3-.2-.4-.2h-2.6c-.4 0-.6.4-.4.8l5.4 9.1c.2.3.7.3.9 0l5.1-9.2c.2-.3-.1-.7-.4-.7h-2.6c-.3 0-.5.1-.6.2z"/></g><path class="st1 st3" d="M180 117.6h-.4l-4.1 2.4c-.2.1-.3.5-.2.7l8.3 14.2c0 .1.1.1.1.2.1.1.3.2.5.2s.3-.2.4-.4l1.7-6.4c0-.1 0-.3-.1-.4l-6-10.3c.1-.1 0-.2-.2-.2zm-2.9 7.5l-20.9 12.2c-.7.4-.9 1.3-.5 2l1 1.7c.4.7 1.3.9 2 .5l20.9-12.2-2.5-4.2z" id="Layer_3"/></svg>