<svg xmlns="http://www.w3.org/2000/svg" xmlns:xlink="http://www.w3.org/1999/xlink" version="1.1" x="0px" y="0px" viewBox="0 0 100 125" enable-background="new 0 0 100 100" xml:space="preserve"><path fill="#000000" d="M53.541,80.198c-0.103,0-0.205-0.017-0.305-0.05c-0.288-0.097-0.512-0.325-0.605-0.613l-6.505-20.206  l-12.294,5.038l-0.134,8.465c-0.007,0.418-0.284,0.785-0.686,0.902l-3.644,1.076c-0.454,0.131-0.941-0.086-1.139-0.517l-2.635-5.725  l-4.049-0.721c-0.375-0.067-0.674-0.349-0.762-0.721c-0.049-0.207-0.027-0.42,0.056-0.607l0.688-3.865l-4.459-4.451  c-0.336-0.334-0.375-0.867-0.092-1.248l2.269-3.047c0.251-0.334,0.691-0.471,1.083-0.331l7.992,2.802l8.979-9.791L20.59,33.494  c-0.238-0.187-0.374-0.476-0.366-0.779c0.008-0.305,0.161-0.585,0.409-0.758l5.069-3.534c0.207-0.144,0.465-0.198,0.715-0.157  l29.528,5.269l14.428-8.314c1.067-0.729,2.218-1.448,3.074-1.982c0.552-0.346,0.974-0.607,1.171-0.749  c2.419-1.75,6.142-1.061,7.964,1.461c1.748,2.419,1.465,5.697-0.659,7.626l-2.192,1.971c-2.069,1.911-5.195,4.799-7.266,6.194  l-7.642,6.595l-5.271,29.538c-0.045,0.25-0.187,0.471-0.394,0.616l-5.069,3.534C53.926,80.14,53.734,80.198,53.541,80.198z   M46.72,57.094c0.138,0,0.275,0.03,0.403,0.09c0.241,0.112,0.425,0.319,0.507,0.573l6.424,19.96l3.683-2.568L63,45.667  c0.038-0.217,0.15-0.413,0.317-0.557l7.99-6.887c2.04-1.382,5.101-4.208,7.127-6.08l2.16-1.929c1.447-1.326,1.617-3.514,0.439-5.142  c-1.227-1.698-3.695-2.187-5.294-1.031c-0.216,0.155-0.676,0.445-1.278,0.82c-0.839,0.525-1.966,1.229-3.072,1.98l-14.791,8.527  c-0.195,0.114-0.422,0.149-0.645,0.112l-29.481-5.262l-3.683,2.568l16.505,12.933c0.209,0.164,0.341,0.409,0.363,0.674  c0.022,0.265-0.068,0.529-0.248,0.725L29.305,58.136c-0.259,0.284-0.66,0.387-1.022,0.256l-7.922-2.778l-1.355,1.819l4.227,4.219  c0.222,0.22,0.321,0.536,0.266,0.844l-0.648,3.637l3.572,0.637c0.308,0.054,0.57,0.258,0.7,0.542l2.497,5.426l2.176-0.641  l0.133-8.394c0.007-0.383,0.24-0.725,0.594-0.87l13.834-5.669C46.473,57.118,46.597,57.094,46.72,57.094z"/></svg>